<svg width="13" height="13" viewBox="0 0 13 13" fill="none" xmlns="http://www.w3.org/2000/svg">
<path d="M11.0957 0H1.9043C0.854395 0 0 0.854395 0 1.9043V11.0957C0 12.1459 0.854395 13 1.9043 13H11.0957C12.1459 13 13 12.1459 13 11.0957V1.9043C13 0.854395 12.1459 0 11.0957 0ZM12.2383 11.0957C12.2383 11.7256 11.7256 12.2383 11.0957 12.2383H1.9043C1.27436 12.2383 0.761719 11.7256 0.761719 11.0957V1.9043C0.761719 1.27436 1.27436 0.761719 1.9043 0.761719H11.0957C11.7256 0.761719 12.2383 1.27436 12.2383 1.9043V11.0957Z" fill="#444444"/>
<path d="M10.6895 1.54871C10.2695 1.54871 9.92773 1.89046 9.92773 2.31042C9.92773 2.73039 10.2695 3.07214 10.6895 3.07214C11.1094 3.07214 11.4512 2.73039 11.4512 2.31042C11.4512 1.89046 11.1094 1.54871 10.6895 1.54871Z" fill="#444444"/>
<path d="M6.5 3.07214C4.60992 3.07214 3.07227 4.6098 3.07227 6.49988C3.07227 8.38996 4.60992 9.92761 6.5 9.92761C8.39008 9.92761 9.92773 8.38996 9.92773 6.49988C9.92773 4.6098 8.39008 3.07214 6.5 3.07214ZM6.5 9.16589C5.02988 9.16589 3.83398 7.96999 3.83398 6.49988C3.83398 5.02976 5.02988 3.83386 6.5 3.83386C7.97012 3.83386 9.16602 5.02976 9.16602 6.49988C9.16602 7.96999 7.97012 9.16589 6.5 9.16589Z" fill="#444444"/>
</svg>
